<svg height="56" viewBox="0 0 56 56" width="56" xmlns="http://www.w3.org/2000/svg"><path d="m9.4843 48.1914h37.7341c4.2192 0 6.6567-2.4375 6.6567-7.2656v-25.875c0-4.8047-2.461-7.2422-7.3594-7.2422h-37.7345c-4.1954 0-6.6563 2.4141-6.6563 7.2422v25.875c0 4.8515 2.4844 7.2656 7.3594 7.2656zm15.7266-19.0078-17.6954-17.4609c.5157-.211 1.125-.3282 1.8516-.3282h37.2893c.7262 0 1.3593.1172 1.8984.3751l-17.6721 17.414c-1.0078 1.0078-1.8984 1.4531-2.8359 1.4531s-1.8281-.4453-2.8359-1.4531zm-19.5 11.7422v-25.875c0-.1641 0-.0938 0-.2344l13.4765 13.2188-13.4531 13.289c-.0234-.1172-.0234-.2578-.0234-.3984zm44.5781-25.8516v25.875.3047l-13.3828-13.2187 13.3828-13.1485zm-40.9219 29.5313c-.6797 0-1.2422-.0938-1.7344-.3047l14.0157-13.8516 1.5234 1.5c1.6406 1.6172 3.2109 2.2969 4.875 2.2969 1.6406 0 3.2344-.6797 4.875-2.2969l1.5234-1.5 13.9924 13.8281c-.4924.2344-1.1016.3282-1.7812.3282z"/></svg>