<svg version="1.2" xmlns="http://www.w3.org/2000/svg" viewBox="0 0 32 32" width="32" height="32">
	<title>icon-notio-svg</title>
	<style>
		.s0 { fill: #ffffff } 
		.s1 { fill: #000000 } 
	</style>
	<path fill-rule="evenodd" class="s0" d="m5.7 29.2l-3.4-4.3c-0.9-1-1.3-2.3-1.3-3.6v-15.5c0-1.9 1.6-3.6 3.6-3.7l15.9-1.1c1.2-0.1 2.3 0.2 3.3 0.9l5.6 3.8c1 0.7 1.6 1.8 1.6 2.9v17.7c0 1.9-1.5 3.5-3.5 3.6l-17.7 1.1c-1.6 0.1-3.1-0.6-4.1-1.8z"/>
	<filter id="f0">
		<feFlood flood-color="#20b2aa" flood-opacity="1" />
		<feBlend mode="normal" in2="SourceGraphic"/>
		<feComposite in2="SourceAlpha" operator="in" />
	</filter>
	<g filter="url(#f0)">
		<path class="s1" d="m11.2 13.6v-0.2c0-0.5 0.5-1 1-1l3.9-0.3 5.3 7.9v-6.9l-1.4-0.2v-0.1c0-0.5 0.5-0.9 1-1l3.5-0.1v0.5c0 0.2-0.2 0.4-0.4 0.5l-0.8 0.1v11.2l-1.1 0.4c-0.9 0.3-1.9-0.1-2.4-0.8l-5.2-7.9v7.5l1.6 0.3v0.2c-0.1 0.4-0.5 0.8-1 0.8l-4 0.2c0-0.5 0.4-1 0.9-1l0.5-0.1v-9.9z"/>
		<path fill-rule="evenodd" class="s1" d="m22.6 3.5l5.6 3.8c0.5 0.3 0.8 0.8 0.8 1.3v17.7c0 0.9-0.7 1.6-1.6 1.6l-17.7 1.1c-1 0.1-1.8-0.3-2.4-1l-3.4-4.3c-0.6-0.7-0.9-1.5-0.9-2.4v-15.5c0-0.9 0.8-1.7 1.7-1.7l16-1.1c0.7-0.1 1.4 0.1 1.9 0.5zm-14.9 4.2c0.4 0.3 0.9 0.4 1.4 0.4l16-0.9c0.1 0 0.2-0.2 0.1-0.2l-3.1-2.2c-0.4-0.3-0.8-0.4-1.3-0.4l-15.1 1.1c-0.3 0.1-0.4 0.4-0.2 0.6zm0.6 18.3c0 0.6 0.5 1 1.1 1l16.8-1c0.5 0 0.9-0.4 0.9-1v-15.2c0-0.5-0.4-0.9-0.9-0.9l-16.9 0.9c-0.6 0-1 0.5-1 1z"/>
	</g>
</svg>