<svg version="1.2" xmlns="http://www.w3.org/2000/svg" viewBox="0 0 24 24" width="24" height="24">
	<title>github-icon-svg</title>
	<style>
		.s0 { opacity: 0;fill: #ffffff } 
		.s1 { fill: #20b2aa } 
	</style>
	<path class="s0" d="m24 24h-24v-24h24z"/>
	<path class="s1" d="m12 1c-1.4 0-2.8 0.3-4.2 0.8-1.3 0.5-2.5 1.3-3.5 2.3-1.1 1-1.9 2.2-2.4 3.5-0.6 1.3-0.9 2.7-0.9 4.2q0 1.7 0.5 3.3 0.6 1.6 1.6 3 1 1.4 2.4 2.4 1.4 1 3 1.5c0.6 0.1 0.8-0.2 0.8-0.5 0-0.3 0-0.9 0-1.9-3.1 0.7-3.7-1.4-3.7-1.4q-0.1-0.2-0.2-0.5-0.2-0.2-0.3-0.4-0.2-0.2-0.4-0.4-0.1-0.1-0.4-0.3c-1-0.6 0.1-0.6 0.1-0.6q0.3 0 0.5 0.1 0.3 0.1 0.5 0.2 0.2 0.2 0.4 0.4 0.2 0.2 0.3 0.4 0.2 0.4 0.6 0.7 0.4 0.3 0.8 0.4 0.5 0.1 0.9 0.1 0.5-0.1 0.9-0.3 0-0.2 0.1-0.4 0-0.2 0.1-0.4 0.1-0.2 0.2-0.4 0.2-0.1 0.3-0.3c-2.4-0.2-5-1.2-5-5.3q0-0.4 0.1-0.8 0-0.4 0.2-0.7 0.1-0.4 0.3-0.8 0.2-0.3 0.5-0.6-0.1-0.3-0.2-0.7 0-0.4 0-0.7 0-0.4 0.1-0.7 0.1-0.4 0.2-0.7c0.1-0.3 1-0.3 3 1.1q0.7-0.2 1.4-0.3 0.7-0.1 1.4-0.1 0.7 0 1.4 0.1 0.6 0.1 1.3 0.3c2.1-1.4 3-1.1 3-1.1q0.2 0.3 0.3 0.7 0 0.3 0.1 0.7 0 0.3-0.1 0.7 0 0.4-0.2 0.7 0.3 0.3 0.5 0.6 0.2 0.4 0.4 0.7 0.1 0.4 0.2 0.8 0.1 0.4 0.1 0.8c0 4.1-2.6 5-5 5.3q0.2 0.2 0.4 0.4 0.1 0.3 0.2 0.5 0.1 0.3 0.1 0.6 0.1 0.2 0.1 0.5v3c0 0 0.1 0.6 0.7 0.5q1.6-0.5 3-1.5 1.4-1 2.4-2.4 1-1.4 1.6-3 0.5-1.6 0.5-3.3c0-1.5-0.3-2.9-0.9-4.2-0.5-1.3-1.3-2.5-2.4-3.5-1-1-2.2-1.8-3.5-2.3-1.4-0.5-2.8-0.8-4.2-0.8z"/>
</svg>