<svg version="1.2" xmlns="http://www.w3.org/2000/svg" viewBox="0 0 56 56" width="56" height="56">
	<title>icon-envelope-svg</title>
	<style>
		.s0 { fill: #20b2aa } 
	</style>
	<path fill-rule="evenodd" class="s0" d="m2.1 40.9v-25.8c0-4.9 2.5-7.3 6.7-7.3h37.7c4.9 0 7.4 2.4 7.4 7.3v25.8c0 4.9-2.5 7.3-6.7 7.3h-37.7c-4.9 0-7.4-2.4-7.4-7.3zm25.9-10.3c1 0 1.9-0.4 2.9-1.4l17.7-17.4q-0.9-0.4-1.9-0.4h-37.3q-1.1 0-1.9 0.3l17.7 17.5c1 1 1.9 1.4 2.8 1.4zm-22.3 10.7l13.5-13.3-13.5-13.2c0 0.2 0 26 0 26.1q0 0.2 0 0.4zm44.6-26.4l-13.4 13.1 13.4 13.3zm-3.6 29.7c0.6 0 1.2-0.1 1.7-0.4l-14-13.8-1.5 1.5c-1.6 1.6-3.2 2.3-4.9 2.3-1.6 0-3.2-0.7-4.8-2.3l-1.6-1.5-14 13.9q0.8 0.3 1.8 0.3z"/>
</svg>